<svg xmlns="http://www.w3.org/2000/svg" width="192" height="60" viewBox="0 0 320 100" class="logo-header_svg__css-1j8o68f"><g fill="#46CDCF"><g xmlns="http://www.w3.org/2000/svg"><path class="logo-header_svg__fil0" d="M13.042 15.28h23.916c.213 0 .385.173.385.386v15.475a.386.386 0 0 1-.385.385H13.042a.386.386 0 0 1-.385-.385V15.666c0-.213.172-.386.385-.386zm1.222 1.608v13.031h21.472V16.888H14.264zM30.57 34.79H19.43v-1.114h11.14z" style="fill-rule:nonzero" transform="scale(2)"></path><path class="logo-header_svg__fil0" style="fill-rule:nonzero" d="M17.395 23.916v-.934l5.396-2.277v.993l-4.278 1.757 4.278 1.771v.996zM23.42 27.616l2.36-8.423h.8l-2.355 8.423zM32.599 23.916l-5.396 2.306v-.996l4.273-1.771-4.273-1.757v-.994l5.396 2.278z" transform="scale(2)"></path><path class="logo-header_svg__fil1" d="M22.962 31.14h4.076l1.125 2.661h-6.326z" transform="scale(2)"></path></g><path xmlns="http://www.w3.org/2000/svg" class="logo-header_svg__fil0" d="m25.386.226 10.439 6.027-.001.001 10.437 6.026.389.224v24.992l-.39.224-10.436 6.026-10.438 6.028-.386.223-.386-.223-10.439-6.027v-.001L3.74 37.72l-.389-.224V12.504l.389-.224 10.437-6.026v-.001L24.613.226 25 .003l.386.223zM25 2.676l-7.66 4.422V7.1L5.666 13.841v22.318l11.676 6.742L25 47.325l7.66-4.422-.001-.001 11.676-6.742V13.841L32.66 7.099 25 2.675z" style="fill-rule:nonzero" transform="scale(2)"></path><path xmlns="http://www.w3.org/2000/svg" class="logo-header_svg__fil2" fill="none" d="M0 0h50v50H0z" transform="scale(2)"></path></g></svg>